<mxfile host="Electron" modified="2024-02-09T12:52:23.229Z" agent="Mozilla/5.0 (Macintosh; Intel Mac OS X 10_15_7) AppleWebKit/537.36 (KHTML, like Gecko) draw.io/22.1.18 Chrome/120.0.6099.199 Electron/28.1.2 Safari/537.36" etag="rWdwQHNSgpt4xMSLZnr4" version="22.1.18" type="device">
  <diagram name="第 1 页" id="pNb9VITNDtulQl9c8-C8">
    <mxGraphModel dx="852" dy="551" grid="0" gridSize="10" guides="1" tooltips="1" connect="1" arrows="1" fold="1" page="1" pageScale="1" pageWidth="1169" pageHeight="1654" math="0" shadow="0">
      <root>
        <mxCell id="0" />
        <mxCell id="1" parent="0" />
        <mxCell id="onyKZX9Ivyj4umJPjB3q-1" value="" style="rounded=0;whiteSpace=wrap;html=1;strokeColor=none;fillColor=none;" parent="1" vertex="1">
          <mxGeometry x="114" y="137" width="724" height="371" as="geometry" />
        </mxCell>
        <mxCell id="w6jYZBwd9yEUk49h7T1w-1" value="" style="rounded=0;whiteSpace=wrap;html=1;" parent="1" vertex="1">
          <mxGeometry x="132" y="181" width="687" height="61" as="geometry" />
        </mxCell>
        <mxCell id="w6jYZBwd9yEUk49h7T1w-3" value="&lt;font style=&quot;font-size: 18px;&quot; face=&quot;Times New Roman&quot;&gt;&lt;b&gt;Scheduler&lt;/b&gt;&lt;br&gt;&lt;/font&gt;" style="text;html=1;strokeColor=none;fillColor=none;align=center;verticalAlign=middle;whiteSpace=wrap;rounded=0;" parent="1" vertex="1">
          <mxGeometry x="129" y="196" width="102" height="30" as="geometry" />
        </mxCell>
        <mxCell id="w6jYZBwd9yEUk49h7T1w-4" value="" style="endArrow=none;html=1;rounded=0;entryX=0.137;entryY=0;entryDx=0;entryDy=0;entryPerimeter=0;" parent="1" target="w6jYZBwd9yEUk49h7T1w-1" edge="1">
          <mxGeometry width="50" height="50" relative="1" as="geometry">
            <mxPoint x="226" y="241" as="sourcePoint" />
            <mxPoint x="225.003" y="182.32" as="targetPoint" />
          </mxGeometry>
        </mxCell>
        <mxCell id="w6jYZBwd9yEUk49h7T1w-15" value="" style="rounded=0;whiteSpace=wrap;html=1;" parent="1" vertex="1">
          <mxGeometry x="132" y="242" width="687" height="61" as="geometry" />
        </mxCell>
        <mxCell id="w6jYZBwd9yEUk49h7T1w-16" value="&lt;font style=&quot;font-size: 18px;&quot; face=&quot;Times New Roman&quot;&gt;&lt;b&gt;Worker 1&lt;/b&gt;&lt;br&gt;&lt;/font&gt;" style="text;html=1;strokeColor=none;fillColor=none;align=center;verticalAlign=middle;whiteSpace=wrap;rounded=0;" parent="1" vertex="1">
          <mxGeometry x="129" y="257" width="102" height="30" as="geometry" />
        </mxCell>
        <mxCell id="w6jYZBwd9yEUk49h7T1w-17" value="" style="endArrow=none;html=1;rounded=0;entryX=0.137;entryY=0;entryDx=0;entryDy=0;entryPerimeter=0;" parent="1" target="w6jYZBwd9yEUk49h7T1w-15" edge="1">
          <mxGeometry width="50" height="50" relative="1" as="geometry">
            <mxPoint x="226" y="302" as="sourcePoint" />
            <mxPoint x="225.003" y="243.32" as="targetPoint" />
          </mxGeometry>
        </mxCell>
        <mxCell id="w6jYZBwd9yEUk49h7T1w-18" value="&lt;font color=&quot;#ffffff&quot; face=&quot;Times New Roman&quot;&gt;&lt;b&gt;task 1&lt;/b&gt;&lt;/font&gt;" style="rounded=1;whiteSpace=wrap;html=1;fillColor=#023047;" parent="1" vertex="1">
          <mxGeometry x="238" y="257" width="53" height="30" as="geometry" />
        </mxCell>
        <mxCell id="w6jYZBwd9yEUk49h7T1w-19" value="&lt;font color=&quot;#ffffff&quot; face=&quot;Times New Roman&quot;&gt;&lt;b&gt;task 5&lt;/b&gt;&lt;/font&gt;" style="rounded=1;whiteSpace=wrap;html=1;fillColor=#023047;" parent="1" vertex="1">
          <mxGeometry x="302" y="257" width="53" height="30" as="geometry" />
        </mxCell>
        <mxCell id="w6jYZBwd9yEUk49h7T1w-20" value="&lt;font color=&quot;#ffffff&quot; face=&quot;Times New Roman&quot;&gt;&lt;b&gt;task 9&lt;br&gt;&lt;/b&gt;&lt;/font&gt;" style="rounded=1;whiteSpace=wrap;html=1;fillColor=#023047;" parent="1" vertex="1">
          <mxGeometry x="367" y="257" width="53" height="30" as="geometry" />
        </mxCell>
        <mxCell id="w6jYZBwd9yEUk49h7T1w-28" value="" style="rounded=0;whiteSpace=wrap;html=1;" parent="1" vertex="1">
          <mxGeometry x="132" y="303" width="687" height="61" as="geometry" />
        </mxCell>
        <mxCell id="w6jYZBwd9yEUk49h7T1w-29" value="&lt;font style=&quot;font-size: 18px;&quot; face=&quot;Times New Roman&quot;&gt;&lt;b&gt;Worker 2&lt;/b&gt;&lt;br&gt;&lt;/font&gt;" style="text;html=1;strokeColor=none;fillColor=none;align=center;verticalAlign=middle;whiteSpace=wrap;rounded=0;" parent="1" vertex="1">
          <mxGeometry x="129" y="318" width="102" height="30" as="geometry" />
        </mxCell>
        <mxCell id="w6jYZBwd9yEUk49h7T1w-30" value="" style="endArrow=none;html=1;rounded=0;entryX=0.137;entryY=0;entryDx=0;entryDy=0;entryPerimeter=0;" parent="1" target="w6jYZBwd9yEUk49h7T1w-28" edge="1">
          <mxGeometry width="50" height="50" relative="1" as="geometry">
            <mxPoint x="226" y="363" as="sourcePoint" />
            <mxPoint x="225.003" y="304.32" as="targetPoint" />
          </mxGeometry>
        </mxCell>
        <mxCell id="w6jYZBwd9yEUk49h7T1w-31" value="&lt;font color=&quot;#ffffff&quot; face=&quot;Times New Roman&quot;&gt;&lt;b&gt;task 2&lt;/b&gt;&lt;/font&gt;" style="rounded=1;whiteSpace=wrap;html=1;fillColor=#023047;" parent="1" vertex="1">
          <mxGeometry x="251" y="318" width="53" height="30" as="geometry" />
        </mxCell>
        <mxCell id="w6jYZBwd9yEUk49h7T1w-32" value="&lt;font color=&quot;#ffffff&quot; face=&quot;Times New Roman&quot;&gt;&lt;b&gt;task 6&lt;/b&gt;&lt;/font&gt;" style="rounded=1;whiteSpace=wrap;html=1;fillColor=#023047;" parent="1" vertex="1">
          <mxGeometry x="315" y="318" width="53" height="30" as="geometry" />
        </mxCell>
        <mxCell id="w6jYZBwd9yEUk49h7T1w-33" value="&lt;font color=&quot;#ffffff&quot; face=&quot;Times New Roman&quot;&gt;&lt;b&gt;task 10&lt;br&gt;&lt;/b&gt;&lt;/font&gt;" style="rounded=1;whiteSpace=wrap;html=1;fillColor=#023047;" parent="1" vertex="1">
          <mxGeometry x="380" y="318" width="53" height="30" as="geometry" />
        </mxCell>
        <mxCell id="w6jYZBwd9yEUk49h7T1w-34" value="" style="rounded=0;whiteSpace=wrap;html=1;" parent="1" vertex="1">
          <mxGeometry x="132" y="364" width="687" height="61" as="geometry" />
        </mxCell>
        <mxCell id="w6jYZBwd9yEUk49h7T1w-35" value="&lt;font style=&quot;font-size: 18px;&quot; face=&quot;Times New Roman&quot;&gt;&lt;b&gt;Worker 3&lt;/b&gt;&lt;br&gt;&lt;/font&gt;" style="text;html=1;strokeColor=none;fillColor=none;align=center;verticalAlign=middle;whiteSpace=wrap;rounded=0;" parent="1" vertex="1">
          <mxGeometry x="129" y="379" width="102" height="30" as="geometry" />
        </mxCell>
        <mxCell id="w6jYZBwd9yEUk49h7T1w-36" value="" style="endArrow=none;html=1;rounded=0;entryX=0.137;entryY=0;entryDx=0;entryDy=0;entryPerimeter=0;" parent="1" target="w6jYZBwd9yEUk49h7T1w-34" edge="1">
          <mxGeometry width="50" height="50" relative="1" as="geometry">
            <mxPoint x="226" y="424" as="sourcePoint" />
            <mxPoint x="225.003" y="365.32" as="targetPoint" />
          </mxGeometry>
        </mxCell>
        <mxCell id="w6jYZBwd9yEUk49h7T1w-37" value="&lt;font color=&quot;#ffffff&quot; face=&quot;Times New Roman&quot;&gt;&lt;b&gt;task 3&lt;/b&gt;&lt;/font&gt;" style="rounded=1;whiteSpace=wrap;html=1;fillColor=#023047;" parent="1" vertex="1">
          <mxGeometry x="263" y="379" width="53" height="30" as="geometry" />
        </mxCell>
        <mxCell id="w6jYZBwd9yEUk49h7T1w-38" value="&lt;font color=&quot;#ffffff&quot; face=&quot;Times New Roman&quot;&gt;&lt;b&gt;task 7&lt;/b&gt;&lt;/font&gt;" style="rounded=1;whiteSpace=wrap;html=1;fillColor=#023047;" parent="1" vertex="1">
          <mxGeometry x="328" y="379" width="53" height="30" as="geometry" />
        </mxCell>
        <mxCell id="w6jYZBwd9yEUk49h7T1w-40" value="" style="rounded=0;whiteSpace=wrap;html=1;" parent="1" vertex="1">
          <mxGeometry x="132" y="425" width="687" height="61" as="geometry" />
        </mxCell>
        <mxCell id="w6jYZBwd9yEUk49h7T1w-41" value="&lt;font style=&quot;font-size: 18px;&quot; face=&quot;Times New Roman&quot;&gt;&lt;b&gt;Worker 4&lt;/b&gt;&lt;br&gt;&lt;/font&gt;" style="text;html=1;strokeColor=none;fillColor=none;align=center;verticalAlign=middle;whiteSpace=wrap;rounded=0;" parent="1" vertex="1">
          <mxGeometry x="129" y="440" width="102" height="30" as="geometry" />
        </mxCell>
        <mxCell id="w6jYZBwd9yEUk49h7T1w-42" value="" style="endArrow=none;html=1;rounded=0;entryX=0.137;entryY=0;entryDx=0;entryDy=0;entryPerimeter=0;" parent="1" target="w6jYZBwd9yEUk49h7T1w-40" edge="1">
          <mxGeometry width="50" height="50" relative="1" as="geometry">
            <mxPoint x="226" y="485" as="sourcePoint" />
            <mxPoint x="225.003" y="426.32" as="targetPoint" />
          </mxGeometry>
        </mxCell>
        <mxCell id="w6jYZBwd9yEUk49h7T1w-43" value="&lt;font color=&quot;#ffffff&quot; face=&quot;Times New Roman&quot;&gt;&lt;b&gt;task 4&lt;/b&gt;&lt;/font&gt;" style="rounded=1;whiteSpace=wrap;html=1;fillColor=#023047;" parent="1" vertex="1">
          <mxGeometry x="276" y="440" width="53" height="30" as="geometry" />
        </mxCell>
        <mxCell id="w6jYZBwd9yEUk49h7T1w-44" value="&lt;font color=&quot;#ffffff&quot; face=&quot;Times New Roman&quot;&gt;&lt;b&gt;task 8&lt;/b&gt;&lt;/font&gt;" style="rounded=1;whiteSpace=wrap;html=1;fillColor=#023047;" parent="1" vertex="1">
          <mxGeometry x="341" y="440.5" width="53" height="30" as="geometry" />
        </mxCell>
        <mxCell id="w6jYZBwd9yEUk49h7T1w-46" value="" style="rounded=0;whiteSpace=wrap;html=1;fillColor=#FB8402;strokeColor=#FB8402;" parent="1" vertex="1">
          <mxGeometry x="227" y="196" width="10" height="31" as="geometry" />
        </mxCell>
        <mxCell id="w6jYZBwd9yEUk49h7T1w-52" value="" style="endArrow=none;html=1;rounded=0;strokeColor=#FB8402;strokeWidth=0.5;" parent="1" edge="1">
          <mxGeometry width="50" height="50" relative="1" as="geometry">
            <mxPoint x="237" y="303" as="sourcePoint" />
            <mxPoint x="237" y="219" as="targetPoint" />
          </mxGeometry>
        </mxCell>
        <mxCell id="w6jYZBwd9yEUk49h7T1w-53" value="" style="rounded=0;whiteSpace=wrap;html=1;fillColor=#FB8402;strokeColor=#FB8402;" parent="1" vertex="1">
          <mxGeometry x="240" y="196" width="10" height="31" as="geometry" />
        </mxCell>
        <mxCell id="w6jYZBwd9yEUk49h7T1w-54" value="" style="endArrow=none;html=1;rounded=0;strokeColor=#FB8402;strokeWidth=0.5;exitX=0.172;exitY=1.02;exitDx=0;exitDy=0;exitPerimeter=0;" parent="1" edge="1">
          <mxGeometry width="50" height="50" relative="1" as="geometry">
            <mxPoint x="250.164" y="363.22000000000025" as="sourcePoint" />
            <mxPoint x="250" y="217" as="targetPoint" />
          </mxGeometry>
        </mxCell>
        <mxCell id="w6jYZBwd9yEUk49h7T1w-55" value="" style="rounded=0;whiteSpace=wrap;html=1;fillColor=#FB8402;strokeColor=#FB8402;" parent="1" vertex="1">
          <mxGeometry x="253" y="196" width="10" height="31" as="geometry" />
        </mxCell>
        <mxCell id="w6jYZBwd9yEUk49h7T1w-56" value="" style="endArrow=none;html=1;rounded=0;strokeColor=#FB8402;strokeWidth=0.5;exitX=0.19;exitY=0.997;exitDx=0;exitDy=0;exitPerimeter=0;" parent="1" source="w6jYZBwd9yEUk49h7T1w-34" edge="1">
          <mxGeometry width="50" height="50" relative="1" as="geometry">
            <mxPoint x="263" y="303" as="sourcePoint" />
            <mxPoint x="263" y="219" as="targetPoint" />
          </mxGeometry>
        </mxCell>
        <mxCell id="w6jYZBwd9yEUk49h7T1w-57" value="" style="rounded=0;whiteSpace=wrap;html=1;fillColor=#FB8402;strokeColor=#FB8402;" parent="1" vertex="1">
          <mxGeometry x="266" y="196" width="10" height="31" as="geometry" />
        </mxCell>
        <mxCell id="w6jYZBwd9yEUk49h7T1w-58" value="" style="endArrow=none;html=1;rounded=0;strokeColor=#FB8402;strokeWidth=0.5;exitX=0.209;exitY=0.996;exitDx=0;exitDy=0;exitPerimeter=0;" parent="1" source="w6jYZBwd9yEUk49h7T1w-40" edge="1">
          <mxGeometry width="50" height="50" relative="1" as="geometry">
            <mxPoint x="276" y="303" as="sourcePoint" />
            <mxPoint x="276" y="219" as="targetPoint" />
          </mxGeometry>
        </mxCell>
        <mxCell id="w6jYZBwd9yEUk49h7T1w-59" value="" style="rounded=0;whiteSpace=wrap;html=1;fillColor=#FB8402;strokeColor=#FB8402;" parent="1" vertex="1">
          <mxGeometry x="291" y="196" width="10" height="31" as="geometry" />
        </mxCell>
        <mxCell id="w6jYZBwd9yEUk49h7T1w-60" value="" style="endArrow=none;html=1;rounded=0;strokeColor=#FB8402;strokeWidth=0.5;" parent="1" edge="1">
          <mxGeometry width="50" height="50" relative="1" as="geometry">
            <mxPoint x="301" y="303" as="sourcePoint" />
            <mxPoint x="301" y="219" as="targetPoint" />
          </mxGeometry>
        </mxCell>
        <mxCell id="w6jYZBwd9yEUk49h7T1w-61" value="" style="rounded=0;whiteSpace=wrap;html=1;fillColor=#FB8402;strokeColor=#FB8402;" parent="1" vertex="1">
          <mxGeometry x="304" y="196" width="10" height="31" as="geometry" />
        </mxCell>
        <mxCell id="w6jYZBwd9yEUk49h7T1w-62" value="" style="endArrow=none;html=1;rounded=0;strokeColor=#FB8402;strokeWidth=0.5;exitX=0.172;exitY=1.02;exitDx=0;exitDy=0;exitPerimeter=0;" parent="1" edge="1">
          <mxGeometry width="50" height="50" relative="1" as="geometry">
            <mxPoint x="314.164" y="363.22000000000025" as="sourcePoint" />
            <mxPoint x="314" y="217" as="targetPoint" />
          </mxGeometry>
        </mxCell>
        <mxCell id="w6jYZBwd9yEUk49h7T1w-63" value="" style="rounded=0;whiteSpace=wrap;html=1;fillColor=#FB8402;strokeColor=#FB8402;" parent="1" vertex="1">
          <mxGeometry x="317" y="196" width="10" height="31" as="geometry" />
        </mxCell>
        <mxCell id="w6jYZBwd9yEUk49h7T1w-64" value="" style="endArrow=none;html=1;rounded=0;strokeColor=#FB8402;strokeWidth=0.5;exitX=0.19;exitY=0.997;exitDx=0;exitDy=0;exitPerimeter=0;" parent="1" edge="1">
          <mxGeometry width="50" height="50" relative="1" as="geometry">
            <mxPoint x="327" y="425" as="sourcePoint" />
            <mxPoint x="327" y="219" as="targetPoint" />
          </mxGeometry>
        </mxCell>
        <mxCell id="w6jYZBwd9yEUk49h7T1w-65" value="" style="rounded=0;whiteSpace=wrap;html=1;fillColor=#FB8402;strokeColor=#FB8402;" parent="1" vertex="1">
          <mxGeometry x="330" y="196" width="10" height="31" as="geometry" />
        </mxCell>
        <mxCell id="w6jYZBwd9yEUk49h7T1w-66" value="" style="endArrow=none;html=1;rounded=0;strokeColor=#FB8402;strokeWidth=0.5;exitX=0.209;exitY=0.996;exitDx=0;exitDy=0;exitPerimeter=0;" parent="1" edge="1">
          <mxGeometry width="50" height="50" relative="1" as="geometry">
            <mxPoint x="340" y="486" as="sourcePoint" />
            <mxPoint x="340" y="219" as="targetPoint" />
          </mxGeometry>
        </mxCell>
        <mxCell id="w6jYZBwd9yEUk49h7T1w-67" value="" style="rounded=0;whiteSpace=wrap;html=1;fillColor=#FB8402;strokeColor=#FB8402;" parent="1" vertex="1">
          <mxGeometry x="355.76" y="196" width="10" height="31" as="geometry" />
        </mxCell>
        <mxCell id="w6jYZBwd9yEUk49h7T1w-68" value="" style="endArrow=none;html=1;rounded=0;strokeColor=#FB8402;strokeWidth=0.5;" parent="1" edge="1">
          <mxGeometry width="50" height="50" relative="1" as="geometry">
            <mxPoint x="365.76" y="303" as="sourcePoint" />
            <mxPoint x="365.76" y="219" as="targetPoint" />
          </mxGeometry>
        </mxCell>
        <mxCell id="w6jYZBwd9yEUk49h7T1w-69" value="" style="rounded=0;whiteSpace=wrap;html=1;fillColor=#FB8402;strokeColor=#FB8402;" parent="1" vertex="1">
          <mxGeometry x="368.76" y="196" width="10" height="31" as="geometry" />
        </mxCell>
        <mxCell id="w6jYZBwd9yEUk49h7T1w-70" value="" style="endArrow=none;html=1;rounded=0;strokeColor=#FB8402;strokeWidth=0.5;exitX=0.172;exitY=1.02;exitDx=0;exitDy=0;exitPerimeter=0;" parent="1" edge="1">
          <mxGeometry width="50" height="50" relative="1" as="geometry">
            <mxPoint x="378.924" y="363.22000000000025" as="sourcePoint" />
            <mxPoint x="378.76" y="217" as="targetPoint" />
          </mxGeometry>
        </mxCell>
        <mxCell id="zjhKCJipI0m-9qXYECHQ-3" value="时间" style="text;html=1;strokeColor=none;fillColor=none;align=center;verticalAlign=middle;whiteSpace=wrap;rounded=0;fontFamily=Times New Roman;fontSize=20;horizontal=1;" vertex="1" parent="1">
          <mxGeometry x="464.5" y="141" width="60" height="30" as="geometry" />
        </mxCell>
        <mxCell id="zjhKCJipI0m-9qXYECHQ-4" value="" style="endArrow=classic;html=1;rounded=0;fontSize=24;fontFamily=Times New Roman;" edge="1" parent="1">
          <mxGeometry width="50" height="50" relative="1" as="geometry">
            <mxPoint x="347.5" y="175" as="sourcePoint" />
            <mxPoint x="659.5" y="175" as="targetPoint" />
          </mxGeometry>
        </mxCell>
      </root>
    </mxGraphModel>
  </diagram>
</mxfile>
